<svg width="353" height="237" viewBox="0 0 353 237" fill="none" xmlns="http://www.w3.org/2000/svg">
<path fill-rule="evenodd" clip-rule="evenodd" d="M105.739 94.2292C107.072 94.5625 110.639 94.6292 114.239 92.2292C118.739 89.2292 123.739 82.2292 129.239 72.7292C133.639 65.1292 141.072 57.2292 144.239 54.2292C158.739 42.2292 193.239 15.8292 215.239 6.22919C235.074 -2.42611 241.643 0.884058 254.458 7.34169C259.41 9.83713 265.295 12.8026 273.239 15.7292L260.739 24.2292C276.906 20.7292 309.639 15.5293 311.239 22.7292C313.739 21.7292 319.639 17.4293 323.239 8.22925C324.072 12.5626 324.839 22.9293 321.239 29.7292L325.239 34.7292C321.572 39.7292 311.739 49.1292 301.739 46.7292C299.239 49.7292 295.539 58.1292 300.739 67.7292C313.906 68.5626 339.439 60.3292 336.239 20.7292C339.239 22.5626 343.839 31.6292 338.239 53.2292C343.072 63.8959 352.739 89.6292 352.739 107.229C348.739 115.229 335.439 128.329 314.239 116.729C312.906 116.063 308.039 114.329 299.239 112.729C296.072 104.396 287.339 85.9292 277.739 78.7292C283.239 87.0626 293.539 111.929 290.739 144.729C275.572 158.896 251.739 196.529 277.739 233.729H256.739C246.406 216.229 224.539 170.729 219.739 128.729C218.072 138.229 216.439 161.429 223.239 178.229C200.072 183.396 145.439 189.729 112.239 173.729C114.572 165.729 118.339 147.429 114.739 138.229C112.406 154.563 100.839 191.529 73.239 208.729C74.5643 214.859 77.3057 228.366 77.7315 233.635L77.739 233.729C77.9309 236.224 77.9758 236.809 77.952 236.5L59.239 233.635C57.5723 227.333 53.539 214.129 50.739 211.729C52.239 208.063 55.239 199.529 55.239 194.729C46.239 182.063 30.939 149.029 41.739 118.229C28.541 127.5 -3.54245 120.5 1.54092 90C5.54088 66.0005 40.739 71.2292 44.739 74.2292C47.5723 72.0625 55.5389 68.7291 64.7389 72.7292C63.0723 79.2292 53.1243 88 43.0409 82.5C26.5409 73.5 12.5409 82.5 9.04092 90C5.54095 97.5 14.1758 121.463 35.7389 112.729C62.1593 102.028 79.1255 93.5599 93.0261 86.6221C100.856 82.7143 107.713 79.2919 114.739 76.2292C115.406 80.2292 114.539 89.4291 105.739 94.2292ZM303.5 64.5C310.5 64.1667 325.9 59.2 331.5 42C328.167 47.5 317.8 59.1 303 61.5C302.667 62 302.3 63.3 303.5 64.5ZM120.5 186C115.7 184.8 109.833 181.5 107.5 180C97.9 195.2 86.8333 207 82.5 211C88.9 221.4 90.8333 231 91 234.5L111 233.5C111 228.3 106 215.333 103.5 209.5C111.1 202.7 118 191 120.5 186ZM211 233.5C196.6 209.9 200.333 194.667 204 190C210.8 190 220.833 188 225 187L228.5 200C223.3 212.4 230.667 227.5 235 233.5H211Z" fill="#D7AE4F"/>
<path d="M114.239 92.2292L114.1 92.0212L114.1 92.0212L114.239 92.2292ZM105.739 94.2292L105.619 94.0097L105.057 94.3164L105.678 94.4717L105.739 94.2292ZM129.239 72.7292L129.455 72.8544L129.455 72.8544L129.239 72.7292ZM144.239 54.2292L144.08 54.0366L144.073 54.0419L144.067 54.0477L144.239 54.2292ZM215.239 6.22919L215.139 6.00006L215.139 6.00006L215.239 6.22919ZM254.458 7.34169L254.571 7.11843L254.571 7.11843L254.458 7.34169ZM273.239 15.7292L273.38 15.9359L273.781 15.6626L273.325 15.4946L273.239 15.7292ZM260.739 24.2292L260.598 24.0225L260.792 24.4736L260.739 24.2292ZM311.239 22.7292L310.995 22.7835L311.059 23.0706L311.332 22.9614L311.239 22.7292ZM323.239 8.22925L323.485 8.18204L323.321 7.33304L323.006 8.13815L323.239 8.22925ZM321.239 29.7292L321.018 29.6123L320.941 29.7573L321.044 29.8854L321.239 29.7292ZM325.239 34.7292L325.441 34.8771L325.554 34.7226L325.434 34.5731L325.239 34.7292ZM301.739 46.7292L301.797 46.4862L301.646 46.4499L301.547 46.5692L301.739 46.7292ZM300.739 67.7292L300.519 67.8483L300.585 67.97L300.723 67.9787L300.739 67.7292ZM336.239 20.7292L336.369 20.5159L335.95 20.2598L335.99 20.7494L336.239 20.7292ZM338.239 53.2292L337.997 53.1665L337.975 53.252L338.011 53.3324L338.239 53.2292ZM352.739 107.229L352.963 107.341L352.989 107.288V107.229H352.739ZM314.239 116.729L314.359 116.51L314.351 116.506L314.239 116.729ZM299.239 112.729L299.005 112.818L299.055 112.95L299.194 112.975L299.239 112.729ZM277.739 78.7292L277.889 78.5292L277.53 78.867L277.739 78.7292ZM290.739 144.729L290.91 144.912L290.98 144.846L290.988 144.751L290.739 144.729ZM277.739 233.729V233.979H278.219L277.944 233.586L277.739 233.729ZM256.739 233.729L256.524 233.856L256.596 233.979H256.739V233.729ZM219.739 128.729L219.987 128.701L219.493 128.686L219.739 128.729ZM223.239 178.229L223.293 178.473L223.581 178.409L223.471 178.135L223.239 178.229ZM112.239 173.729L111.999 173.659L111.94 173.863L112.13 173.954L112.239 173.729ZM114.739 138.229L114.972 138.138L114.626 137.254L114.491 138.194L114.739 138.229ZM73.239 208.729L73.1067 208.517L72.9574 208.61L72.9946 208.782L73.239 208.729ZM77.7315 233.635L77.9807 233.615L77.9807 233.614L77.7315 233.635ZM77.739 233.729L77.9882 233.71L77.9882 233.71L77.739 233.729ZM77.952 236.5L78.2013 236.481L78.186 236.283L77.9899 236.253L77.952 236.5ZM59.239 233.635L58.9973 233.698L59.0392 233.857L59.2011 233.882L59.239 233.635ZM50.739 211.729L50.5076 211.635L50.4393 211.802L50.5763 211.919L50.739 211.729ZM55.239 194.729H55.489V194.649L55.4428 194.584L55.239 194.729ZM41.739 118.229L41.9749 118.312L42.2326 117.577L41.5953 118.025L41.739 118.229ZM1.54092 90L1.29432 89.9589L1.54092 90ZM44.739 74.2292L44.589 74.4292L44.7404 74.5428L44.8908 74.4278L44.739 74.2292ZM64.7389 72.7292L64.9811 72.7913L65.034 72.5849L64.8386 72.4999L64.7389 72.7292ZM43.0409 82.5L43.1606 82.2805L43.1606 82.2805L43.0409 82.5ZM35.7389 112.729L35.6451 112.498L35.6451 112.498L35.7389 112.729ZM93.0261 86.6221L92.9144 86.3984L92.9144 86.3984L93.0261 86.6221ZM114.739 76.2292L114.986 76.1881L114.933 75.872L114.639 76.0001L114.739 76.2292ZM331.5 42L331.738 42.0774L331.286 41.8704L331.5 42ZM303.5 64.5L303.323 64.6768L303.401 64.755L303.512 64.7497L303.5 64.5ZM303 61.5L302.96 61.2532L302.852 61.2707L302.792 61.3613L303 61.5ZM107.5 180L107.635 179.79L107.423 179.653L107.289 179.867L107.5 180ZM120.5 186L120.724 186.112L120.863 185.833L120.561 185.757L120.5 186ZM82.5 211L82.3304 210.816L82.1793 210.956L82.2871 211.131L82.5 211ZM91 234.5L90.7503 234.512L90.7622 234.762L91.0125 234.75L91 234.5ZM111 233.5L111.012 233.75L111.25 233.738V233.5H111ZM103.5 209.5L103.333 209.314L103.199 209.433L103.27 209.598L103.5 209.5ZM204 190V189.75H203.878L203.803 189.846L204 190ZM211 233.5L210.787 233.63L210.86 233.75H211V233.5ZM225 187L225.241 186.935L225.178 186.7L224.942 186.757L225 187ZM228.5 200L228.731 200.097L228.764 200.018L228.741 199.935L228.5 200ZM235 233.5V233.75H235.489L235.203 233.354L235 233.5ZM114.1 92.0212C110.563 94.3796 107.069 94.304 105.8 93.9867L105.678 94.4717C107.075 94.821 110.715 94.8788 114.378 92.4372L114.1 92.0212ZM129.023 72.6039C126.275 77.3496 123.656 81.4649 121.164 84.7661C118.671 88.0701 116.316 90.5441 114.1 92.0212L114.378 92.4372C116.662 90.9142 119.057 88.3883 121.563 85.0673C124.072 81.7434 126.703 77.6088 129.455 72.8544L129.023 72.6039ZM144.067 54.0477C140.893 57.0549 133.44 64.974 129.023 72.6039L129.455 72.8544C133.838 65.2844 141.252 57.4035 144.411 54.4107L144.067 54.0477ZM215.139 6.00006C204.114 10.8108 189.972 19.8234 176.782 29.1249C163.589 38.429 151.334 48.0329 144.08 54.0366L144.398 54.4218C151.644 48.4255 163.889 38.8294 177.071 29.5335C190.256 20.2349 204.364 11.2476 215.339 6.45832L215.139 6.00006ZM254.571 7.11843C248.172 3.89417 243.284 1.42739 237.505 0.869247C231.72 0.310509 225.073 1.665 215.139 6.00006L215.339 6.45832C225.24 2.13808 231.795 0.820002 237.457 1.36693C243.126 1.91446 247.929 4.33158 254.346 7.56494L254.571 7.11843ZM273.325 15.4946C265.396 12.5733 259.522 9.61344 254.571 7.11843L254.346 7.56494C259.299 10.0608 265.195 13.0319 273.153 15.9638L273.325 15.4946ZM260.88 24.436L273.38 15.9359L273.098 15.5225L260.598 24.0225L260.88 24.436ZM311.483 22.675C311.26 21.6733 310.501 20.9176 309.385 20.3594C308.269 19.8015 306.765 19.4229 304.98 19.1861C301.407 18.7123 296.639 18.7984 291.431 19.2176C281.012 20.0563 268.775 22.2336 260.686 23.9849L260.792 24.4736C268.869 22.7249 281.082 20.5522 291.472 19.7159C296.668 19.2976 301.394 19.215 304.914 19.6818C306.675 19.9153 308.117 20.2844 309.161 20.8066C310.204 21.3284 310.818 21.9852 310.995 22.7835L311.483 22.675ZM323.006 8.13815C319.429 17.281 313.575 21.5255 311.146 22.4971L311.332 22.9614C313.903 21.933 319.849 17.5775 323.472 8.32035L323.006 8.13815ZM321.46 29.8462C323.285 26.3985 323.997 22.0638 324.151 18.0639C324.306 14.0606 323.905 10.3665 323.485 8.18204L322.994 8.27646C323.407 10.4254 323.805 14.0813 323.652 18.0446C323.498 22.0114 322.793 26.26 321.018 29.6123L321.46 29.8462ZM325.434 34.5731L321.434 29.5731L321.044 29.8854L325.044 34.8854L325.434 34.5731ZM301.681 46.9723C306.775 48.1949 311.804 46.4076 315.999 43.7146C320.196 41.0202 323.592 37.3973 325.441 34.8771L325.037 34.5814C323.219 37.0612 319.865 40.6383 315.729 43.2939C311.59 45.9509 306.704 47.6636 301.797 46.4862L301.681 46.9723ZM300.959 67.6102C295.818 58.1202 299.481 49.8299 301.931 46.8893L301.547 46.5692C298.997 49.6286 295.26 58.1383 300.519 67.8483L300.959 67.6102ZM335.99 20.7494C337.585 40.4913 332.017 52.3661 324.459 59.2064C316.89 66.0557 307.287 67.8931 300.755 67.4797L300.723 67.9787C307.358 68.3987 317.104 66.5361 324.794 59.5771C332.494 52.609 338.093 40.5672 336.488 20.7091L335.99 20.7494ZM338.481 53.292C341.287 42.4696 341.543 34.7669 340.711 29.5275C339.881 24.3007 337.96 21.4882 336.369 20.5159L336.109 20.9426C337.518 21.8036 339.397 24.4411 340.217 29.606C341.035 34.7583 340.791 42.3889 337.997 53.1665L338.481 53.292ZM352.989 107.229C352.989 98.3919 350.564 87.5303 347.541 77.5567C344.517 67.5789 340.888 58.4687 338.467 53.1261L338.011 53.3324C340.424 58.6565 344.045 67.7462 347.062 77.7018C350.081 87.6615 352.489 98.4666 352.489 107.229H352.989ZM314.119 116.949C324.78 122.782 333.486 122.417 340.039 119.558C346.578 116.705 350.942 111.382 352.963 107.341L352.515 107.117C350.536 111.076 346.25 116.303 339.839 119.1C333.442 121.891 324.898 122.276 314.359 116.51L314.119 116.949ZM299.194 112.975C307.986 114.574 312.826 116.302 314.127 116.953L314.351 116.506C312.986 115.823 308.092 114.085 299.284 112.483L299.194 112.975ZM277.589 78.9292C282.347 82.4974 286.909 88.8768 290.685 95.4291C294.457 101.975 297.426 108.662 299.005 112.818L299.473 112.64C297.885 108.463 294.905 101.751 291.118 95.1794C287.335 88.615 282.731 82.1611 277.889 78.5292L277.589 78.9292ZM290.988 144.751C293.793 111.894 283.478 86.9712 277.948 78.5915L277.53 78.867C283 87.1539 293.285 111.965 290.49 144.708L290.988 144.751ZM277.944 233.586C264.994 215.058 264.455 196.43 269.042 180.662C273.631 164.883 283.353 151.971 290.91 144.912L290.568 144.547C282.959 151.655 273.18 164.642 268.561 180.522C263.94 196.412 264.484 215.201 277.534 233.872L277.944 233.586ZM256.739 233.979H277.739V233.479H256.739V233.979ZM219.491 128.758C224.296 170.807 246.182 216.342 256.524 233.856L256.954 233.602C246.629 216.116 224.782 170.651 219.987 128.701L219.491 128.758ZM223.471 178.135C220.087 169.775 218.797 159.808 218.564 150.735C218.331 141.665 219.155 133.506 219.985 128.772L219.493 128.686C218.657 133.452 217.83 141.644 218.064 150.748C218.298 159.85 219.591 169.884 223.007 178.323L223.471 178.135ZM112.13 173.954C128.782 181.98 150.787 184.396 171.504 184.167C192.227 183.937 211.695 181.06 223.293 178.473L223.185 177.985C211.617 180.565 192.184 183.438 171.499 183.667C150.808 183.896 128.896 181.479 112.347 173.504L112.13 173.954ZM114.506 138.32C116.282 142.858 116.249 149.679 115.466 156.4C114.684 163.109 113.162 169.67 111.999 173.659L112.479 173.799C113.649 169.788 115.177 163.199 115.962 156.458C116.746 149.729 116.796 142.8 114.972 138.138L114.506 138.32ZM73.3712 208.941C87.2247 200.308 97.043 186.722 103.688 173.265C110.334 159.807 113.816 146.456 114.986 138.265L114.491 138.194C113.328 146.336 109.861 159.635 103.24 173.044C96.6183 186.453 86.8532 199.95 73.1067 208.517L73.3712 208.941ZM77.9807 233.614C77.5533 228.325 74.8074 214.8 73.4833 208.676L72.9946 208.782C74.3212 214.918 77.0582 228.406 77.4823 233.655L77.9807 233.614ZM77.9882 233.71L77.9807 233.615L77.4823 233.654L77.4897 233.749L77.9882 233.71ZM77.7028 236.519C77.7057 236.558 77.7076 236.583 77.7083 236.591C77.7084 236.593 77.7086 236.595 77.7087 236.596C77.7088 236.597 77.7091 236.6 77.7094 236.604C77.9783 236.825 78.2074 236.561 78.2073 236.559C78.2073 236.558 78.2072 236.558 78.2072 236.557C78.2072 236.557 78.2072 236.557 78.2072 236.557C78.2071 236.557 78.2071 236.556 78.2071 236.556C78.2071 236.556 78.207 236.555 78.2069 236.554C78.2066 236.55 78.206 236.542 78.205 236.529C78.2012 236.479 78.1918 236.357 78.1757 236.147C78.1434 235.728 78.0842 234.958 77.9882 233.71L77.4897 233.748C77.5856 234.996 77.6449 235.766 77.6771 236.185C77.6933 236.395 77.7026 236.517 77.7065 236.568C77.7075 236.58 77.7081 236.588 77.7084 236.592C77.7085 236.593 77.7085 236.594 77.7085 236.594C77.7085 236.594 77.7085 236.594 77.7085 236.594C77.7085 236.594 77.7085 236.594 77.7085 236.594C77.7085 236.594 77.7085 236.593 77.7084 236.592C77.7083 236.59 77.9374 236.326 78.2063 236.548C78.2066 236.551 78.207 236.554 78.207 236.555C78.2071 236.556 78.2071 236.556 78.2068 236.553C78.2062 236.544 78.2043 236.519 78.2013 236.481L77.7028 236.519ZM59.2011 233.882L77.9142 236.747L77.9899 236.253L59.2768 233.387L59.2011 233.882ZM50.5763 211.919C51.2315 212.481 51.9895 213.71 52.7883 215.386C53.581 217.049 54.3966 219.112 55.1785 221.303C56.7422 225.683 58.1652 230.552 58.9973 233.698L59.4807 233.571C58.6461 230.415 57.2191 225.532 55.6494 221.135C54.8647 218.937 54.0427 216.855 53.2396 215.171C52.4426 213.499 51.6464 212.178 50.9017 211.539L50.5763 211.919ZM54.989 194.729C54.989 197.091 54.2484 200.395 53.3116 203.584C52.3768 206.766 51.2548 209.808 50.5076 211.635L50.9704 211.824C51.7232 209.984 52.8511 206.926 53.7913 203.725C54.7295 200.531 55.489 197.168 55.489 194.729H54.989ZM41.5031 118.147C36.0815 133.608 37.214 149.62 40.8222 163.343C44.4302 177.065 50.5185 188.517 55.0352 194.874L55.4428 194.584C50.9595 188.275 44.8978 176.877 41.3057 163.216C37.7139 149.555 36.5964 133.65 41.9749 118.312L41.5031 118.147ZM1.29432 89.9589C0.0159715 97.629 1.07169 103.842 3.59961 108.697C6.12699 113.552 10.1164 117.032 14.6749 119.253C23.7761 123.689 35.1959 123.131 41.8827 118.434L41.5953 118.025C35.0841 122.598 23.8631 123.175 14.894 118.804C10.4173 116.622 6.51411 113.213 4.04311 108.466C1.57264 103.721 0.524187 97.621 1.78752 90.0411L1.29432 89.9589ZM44.889 74.0292C44.3492 73.6244 43.3226 73.2047 41.9665 72.8207C40.6002 72.4337 38.8699 72.075 36.8982 71.8052C32.9553 71.2656 28.0325 71.0796 23.1066 71.742C18.1823 72.4042 13.2385 73.9165 9.26911 76.7866C5.29309 79.6614 2.30555 83.8916 1.29432 89.9589L1.78752 90.0411C2.77627 84.1087 5.68848 79.9926 9.56208 77.1917C13.4423 74.3861 18.2981 72.8931 23.1732 72.2376C28.0468 71.5822 32.9236 71.766 36.8304 72.3006C38.7835 72.5678 40.4905 72.9223 41.8303 73.3018C43.1804 73.6841 44.1287 74.0841 44.589 74.4292L44.889 74.0292ZM64.8386 72.4999C55.5385 68.4564 47.4766 71.821 44.5871 74.0307L44.8908 74.4278C47.668 72.3041 55.5394 69.0019 64.6393 72.9585L64.8386 72.4999ZM42.9212 82.7195C48.0553 85.5199 53.1576 84.6827 57.1726 82.3303C61.176 79.9846 64.1286 76.1161 64.9811 72.7913L64.4968 72.6671C63.6826 75.8423 60.8278 79.6092 56.9198 81.8989C53.0233 84.1819 48.1099 84.9801 43.1606 82.2805L42.9212 82.7195ZM9.26747 90.1057C12.7093 82.7303 26.5537 73.7917 42.9212 82.7195L43.1606 82.2805C26.5282 73.2083 12.3725 82.2697 8.81438 89.8943L9.26747 90.1057ZM35.6451 112.498C30.2984 114.663 25.7744 114.794 22.0501 113.678C18.3235 112.56 15.3737 110.186 13.1906 107.302C11.0067 104.416 9.59589 101.025 8.94845 97.8931C8.2992 94.7526 8.42506 91.9109 9.26747 90.1057L8.81438 89.8943C7.9068 91.8391 7.79954 94.8054 8.45881 97.9943C9.11989 101.192 10.5592 104.653 12.7919 107.603C15.0255 110.555 18.0587 113.003 21.9065 114.157C25.7564 115.311 30.3979 115.162 35.8328 112.961L35.6451 112.498ZM92.9144 86.3984C79.0156 93.3354 62.0563 101.8 35.6451 112.498L35.8328 112.961C62.2623 102.256 79.2354 93.7845 93.1377 86.8458L92.9144 86.3984ZM114.639 76.0001C107.606 79.0658 100.743 82.4912 92.9144 86.3984L93.1377 86.8458C100.969 82.9374 107.82 79.518 114.839 76.4584L114.639 76.0001ZM105.859 94.4487C114.787 89.5786 115.662 80.2476 114.986 76.1881L114.492 76.2703C115.149 80.2108 114.291 89.2797 105.619 94.0097L105.859 94.4487ZM331.262 41.9226C325.705 58.9923 310.422 63.9201 303.488 64.2503L303.512 64.7497C310.578 64.4132 326.095 59.4077 331.738 42.0774L331.262 41.9226ZM303.04 61.7468C317.939 59.3307 328.359 47.6644 331.714 42.1296L331.286 41.8704C327.974 47.3356 317.661 58.8693 302.96 61.2532L303.04 61.7468ZM303.677 64.3232C302.581 63.2273 302.924 62.0648 303.208 61.6387L302.792 61.3613C302.409 61.9352 302.019 63.3727 303.323 64.6768L303.677 64.3232ZM107.365 180.21C109.705 181.715 115.599 185.032 120.439 186.243L120.561 185.757C115.801 184.568 109.962 181.285 107.635 179.79L107.365 180.21ZM82.6696 211.184C87.0175 207.17 98.0987 195.354 107.711 180.133L107.289 179.867C97.7013 195.046 86.6492 206.83 82.3304 210.816L82.6696 211.184ZM91.2497 234.488C91.081 230.944 89.134 221.303 82.7129 210.869L82.2871 211.131C88.666 221.497 90.5857 231.056 90.7503 234.512L91.2497 234.488ZM110.988 233.25L90.9875 234.25L91.0125 234.75L111.012 233.75L110.988 233.25ZM103.27 209.598C104.518 212.51 106.391 217.204 107.951 221.818C108.731 224.124 109.432 226.408 109.937 228.437C110.444 230.471 110.75 232.232 110.75 233.5H111.25C111.25 232.168 110.931 230.359 110.422 228.316C109.912 226.269 109.207 223.972 108.424 221.657C106.859 217.029 104.982 212.323 103.73 209.402L103.27 209.598ZM120.276 185.888C117.781 190.879 110.898 202.545 103.333 209.314L103.667 209.686C111.302 202.855 118.219 191.121 120.724 186.112L120.276 185.888ZM203.803 189.846C200.046 194.628 196.358 209.984 210.787 233.63L211.213 233.37C196.842 209.816 200.621 194.706 204.197 190.154L203.803 189.846ZM224.942 186.757C220.778 187.756 210.769 189.75 204 189.75V190.25C210.831 190.25 220.889 188.244 225.058 187.243L224.942 186.757ZM228.741 199.935L225.241 186.935L224.759 187.065L228.259 200.065L228.741 199.935ZM235.203 233.354C233.051 230.375 230.14 225.126 228.415 219.081C226.69 213.036 226.161 206.224 228.731 200.097L228.269 199.903C225.639 206.176 226.193 213.114 227.935 219.219C229.677 225.324 232.616 230.625 234.797 233.646L235.203 233.354ZM211 233.75H235V233.25H211V233.75Z" fill="black"/>
</svg>
